<?xml version="1.0" standalone="no"?>
<!DOCTYPE svg PUBLIC "-//W3C//DTD SVG 20010904//EN"
 "http://www.w3.org/TR/2001/REC-SVG-20010904/DTD/svg10.dtd">
<svg version="1.0" xmlns="http://www.w3.org/2000/svg"
 width="146.000000pt" height="146.000000pt" viewBox="0 0 146.000000 146.000000"
 preserveAspectRatio="xMidYMid meet">
<metadata>
Created by potrace 1.14, written by Peter Selinger 2001-2017
</metadata>
<g transform="translate(0.000000,146.000000) scale(0.100000,-0.100000)"
fill="#000000" stroke="none">
<path d="M370 1444 c-30 -8 -71 -19 -90 -24 -19 -5 -87 -22 -150 -36 -109 -25
-140 -37 -129 -49 3 -3 68 11 145 31 76 19 157 39 179 44 22 5 56 13 75 18 25
6 38 5 45 -5 8 -10 15 -7 32 12 l21 25 -36 -1 c-20 -1 -62 -8 -92 -15z"/>
<path d="M460 1381 c0 -6 5 -13 10 -16 20 -12 9 -26 -35 -45 -33 -14 -45 -25
-45 -41 0 -12 -24 -47 -55 -81 -64 -69 -93 -126 -111 -220 -38 -200 80 -363
301 -415 32 -7 68 -23 78 -34 16 -18 29 -20 86 -17 l66 3 1 -106 c2 -141 12
-230 30 -254 15 -20 15 -20 35 4 32 39 19 134 -24 170 -14 11 -17 32 -17 110
l0 96 48 25 c38 20 48 31 50 55 3 18 23 50 55 85 49 53 79 102 107 178 18 47
8 166 -19 227 -44 101 -167 192 -290 216 -48 9 -65 17 -69 31 -4 18 -11 19
-77 13 -59 -6 -74 -4 -88 9 -17 18 -37 21 -37 7z m136 -78 c-4 -4 -47 -22 -96
-39 -77 -28 -88 -29 -80 -14 8 16 39 31 110 54 24 7 74 7 66 -1z m-279 -319
c-3 -3 -12 -4 -19 -1 -8 3 -5 6 6 6 11 1 17 -2 13 -5z m-7 -54 c-20 -13 -33
-13 -25 0 3 6 14 10 23 10 15 0 15 -2 2 -10z m-3 -36 c-3 -3 -12 -4 -19 -1 -8
3 -5 6 6 6 11 1 17 -2 13 -5z m33 -128 c0 -2 -7 -6 -15 -10 -8 -3 -15 -1 -15
4 0 6 7 10 15 10 8 0 15 -2 15 -4z m80 -25 c0 -9 -34 -21 -60 -20 -8 0 -1 6
15 14 37 16 45 18 45 6z m25 -81 c-3 -5 -11 -10 -16 -10 -6 0 -7 5 -4 10 3 6
11 10 16 10 6 0 7 -4 4 -10z m155 -30 c-30 -11 -59 -18 -65 -16 -16 6 57 35
90 35 25 0 21 -3 -25 -19z m240 10 c0 -16 -45 -40 -112 -61 -76 -23 -79 -23
-72 -4 4 8 1 15 -5 15 -6 0 -11 -4 -11 -10 0 -13 -37 -13 -46 1 -11 18 10 29
67 35 47 4 51 3 29 -7 -21 -10 -22 -13 -7 -16 18 -5 65 13 117 42 30 17 40 18
40 5z"/>
</g>
</svg>
